<?xml version="1.0" encoding="UTF-8"?>
<svg width="700pt" height="700pt" version="1.1" viewBox="0 0 700 700" xmlns="http://www.w3.org/2000/svg">
 <g>
  <path d="m350 155.59c-68.578 0-124.41 55.789-124.41 124.39 0 68.602 55.836 124.41 124.41 124.41s124.39-55.836 124.39-124.41c0-68.578-55.789-124.39-124.39-124.39zm0 230.11c-58.309 0-105.72-47.414-105.72-105.72 0-58.285 47.414-105.72 105.72-105.72 58.285 0 105.7 47.438 105.7 105.72 0.023437 58.309-47.391 105.72-105.7 105.72z"/>
  <path d="m608.14 117.51h-516.27c-11.809 0-21.422 9.6133-21.422 21.398v282.12c0 11.828 9.6133 21.441 21.422 21.441h516.27c11.809 0 21.422-9.6133 21.422-21.441v-282.11c0-11.805-9.6172-21.418-21.422-21.418zm-36.098 306.3h-444.08c-3.7812-19.156-19.039-33.832-38.852-37.402v-212.85c19.809-3.5703 35.047-18.223 38.852-37.379h444.06c3.7812 19.133 19.039 33.809 38.852 37.379v212.87c-19.812 3.543-35.051 18.223-38.832 37.379zm38.828-284.88v15.145c-9.2852-2.707-16.215-9.1484-19.227-17.898h16.473c1.5156 0 2.7539 1.2383 2.7539 2.7539zm-519-2.7539h16.473c-2.9844 8.75-9.9141 15.191-19.203 17.898v-15.145c0-1.5156 1.2383-2.7539 2.7305-2.7539zm-2.7305 284.88v-15.145c9.2852 2.707 16.215 9.1484 19.227 17.898h-16.496c-1.4922 0-2.7305-1.2383-2.7305-2.7539zm519 2.7539h-16.473c2.9883-8.75 9.9414-15.191 19.227-17.898v15.145c-0.023437 1.5156-1.2617 2.7539-2.7539 2.7539z"/>
  <path d="m289.82 231.75v40.18l37.848-40.18h26.602l-37.848 38.266 41.535 58.613h-26.738l-29.168-43.562-12.227 12.344v31.195h-21.285v-96.855z"/>
  <path d="m412.21 283.17c-1.2617-8.0508-6.0195-12.086-14.258-12.086-3.0781 0-5.6484 0.72266-7.7227 2.125-2.0781 1.3984-3.7812 3.1953-5.0859 5.4141-1.3086 2.2148-2.2383 4.6914-2.7773 7.3984-0.53516 2.707-0.81641 5.3203-0.81641 7.8633 0 2.5195 0.28125 5.1094 0.81641 7.7227 0.53516 2.6367 1.4219 4.9922 2.6367 7.1406 1.2148 2.125 2.8711 3.875 4.9453 5.2266 2.0781 1.3281 4.6211 2.0312 7.6055 2.0312 4.6211 0 8.168-1.2852 10.641-3.875 2.4961-2.5898 4.0586-6.043 4.6914-10.383h18.598c-1.2617 9.3086-4.875 16.426-10.852 21.352-5.9727 4.9219-13.602 7.3984-22.938 7.3984-5.3438 0-10.172-0.88672-14.512-2.6367-4.3398-1.7734-8.0508-4.2695-11.129-7.4648-3.0781-3.2188-5.4844-7.0234-7.1875-11.41-1.7266-4.3867-2.5664-9.2148-2.5664-14.441 0-5.4375 0.79297-10.453 2.3789-15.121 1.5859-4.668 3.9219-8.6797 6.9766-12.086 3.0781-3.3828 6.8359-6.043 11.27-7.9336s9.4961-2.8477 15.191-2.8477c4.1523 0 8.168 0.53516 12.016 1.6094 3.8516 1.0742 7.2812 2.7305 10.312 4.9453 3.0352 2.2148 5.5078 4.9922 7.3984 8.3516 1.8906 3.3359 2.9883 7.2344 3.2422 11.668zm-4.8789-34.461h-17.641l-14.91-19.273h15.586l8.3984 10.988 8.6797-10.988h14.934z"/>
 </g>
</svg>
