<?xml version="1.0" encoding="UTF-8"?>
<svg width="700pt" height="700pt" version="1.1" viewBox="0 0 700 700" xmlns="http://www.w3.org/2000/svg" xmlns:xlink="http://www.w3.org/1999/xlink">
 <defs>
  <symbol id="k" overflow="visible">
   <path d="m29.312-1.75c-1.5117 0.78125-3.0898 1.3711-4.7344 1.7656-1.6367 0.40625-3.3398 0.60938-5.1094 0.60938-5.3125 0-9.5273-1.4844-12.641-4.4531-3.1055-2.9688-4.6562-7-4.6562-12.094s1.5508-9.125 4.6562-12.094c3.1133-2.9688 7.3281-4.4531 12.641-4.4531 1.7695 0 3.4727 0.19922 5.1094 0.59375 1.6445 0.39844 3.2227 0.99219 4.7344 1.7812v6.5938c-1.5312-1.0391-3.0391-1.8008-4.5156-2.2812-1.4805-0.48828-3.0391-0.73438-4.6719-0.73438-2.9375 0-5.2461 0.94531-6.9219 2.8281-1.6797 1.875-2.5156 4.4648-2.5156 7.7656 0 3.293 0.83594 5.8828 2.5156 7.7656 1.6758 1.875 3.9844 2.8125 6.9219 2.8125 1.6328 0 3.1914-0.23828 4.6719-0.71875 1.4766-0.48828 2.9844-1.2539 4.5156-2.2969z"/>
  </symbol>
  <symbol id="h" overflow="visible">
   <path d="m21.453-17.406c-0.67969-0.3125-1.3516-0.53906-2.0156-0.6875-0.65625-0.15625-1.3203-0.23438-1.9844-0.23438-1.9688 0-3.4844 0.63281-4.5469 1.8906-1.0547 1.2617-1.5781 3.0703-1.5781 5.4219v11.016h-7.6562v-23.922h7.6562v3.9219c0.97656-1.5625 2.1016-2.7031 3.375-3.4219 1.2812-0.71875 2.8125-1.0781 4.5938-1.0781 0.25 0 0.52344 0.011719 0.82812 0.03125 0.30078 0.023438 0.73438 0.070312 1.2969 0.14062z"/>
  </symbol>
  <symbol id="b" overflow="visible">
   <path d="m27.562-12.031v2.1875h-17.891c0.1875 1.793 0.83203 3.1367 1.9375 4.0312 1.1133 0.89844 2.6719 1.3438 4.6719 1.3438 1.6016 0 3.25-0.23438 4.9375-0.70312 1.6875-0.47656 3.4219-1.2031 5.2031-2.1719v5.8906c-1.8047 0.6875-3.6094 1.2031-5.4219 1.5469-1.8125 0.35156-3.6211 0.53125-5.4219 0.53125-4.3359 0-7.7031-1.0977-10.109-3.2969-2.3984-2.207-3.5938-5.2969-3.5938-9.2656 0-3.9062 1.1758-6.9727 3.5312-9.2031 2.3633-2.2383 5.6094-3.3594 9.7344-3.3594 3.7578 0 6.7695 1.1367 9.0312 3.4062 2.2578 2.2617 3.3906 5.2812 3.3906 9.0625zm-7.8594-2.5312c0-1.457-0.42969-2.6289-1.2812-3.5156-0.84375-0.89453-1.9492-1.3438-3.3125-1.3438-1.4922 0-2.6992 0.41797-3.625 1.25-0.91797 0.83594-1.4922 2.0391-1.7188 3.6094z"/>
  </symbol>
  <symbol id="g" overflow="visible">
   <path d="m14.391-10.766c-1.5938 0-2.793 0.27344-3.5938 0.8125-0.80469 0.54297-1.2031 1.3398-1.2031 2.3906 0 0.96875 0.32031 1.7305 0.96875 2.2812 0.64453 0.54297 1.5469 0.8125 2.7031 0.8125 1.4375 0 2.6445-0.51562 3.625-1.5469 0.98828-1.0312 1.4844-2.3203 1.4844-3.875v-0.875zm11.688-2.8906v13.656h-7.7031v-3.5469c-1.0312 1.4492-2.1875 2.5078-3.4688 3.1719s-2.8398 1-4.6719 1c-2.4805 0-4.4961-0.72266-6.0469-2.1719-1.543-1.4453-2.3125-3.3203-2.3125-5.625 0-2.8125 0.96094-4.8672 2.8906-6.1719 1.9375-1.3125 4.9688-1.9688 9.0938-1.9688h4.5156v-0.60938c0-1.207-0.48047-2.0938-1.4375-2.6562-0.94922-0.5625-2.4375-0.84375-4.4688-0.84375-1.6367 0-3.1562 0.16797-4.5625 0.5-1.4062 0.32422-2.7188 0.8125-3.9375 1.4688v-5.8281c1.6445-0.40625 3.2891-0.70703 4.9375-0.90625 1.6562-0.20703 3.3047-0.3125 4.9531-0.3125 4.3203 0 7.4375 0.85547 9.3438 2.5625 1.9141 1.6992 2.875 4.4609 2.875 8.2812z"/>
  </symbol>
  <symbol id="f" overflow="visible">
   <path d="m12.031-30.719v6.7969h7.875v5.4688h-7.875v10.141c0 1.1172 0.21875 1.8711 0.65625 2.2656 0.4375 0.38672 1.3125 0.57812 2.625 0.57812h3.9375v5.4688h-6.5625c-3.0234 0-5.1641-0.62891-6.4219-1.8906-1.2617-1.2578-1.8906-3.3984-1.8906-6.4219v-10.141h-3.7969v-5.4688h3.7969v-6.7969z"/>
  </symbol>
  <symbol id="a" overflow="visible">
   <path d="m19.953-20.422v-12.812h7.6875v33.234h-7.6875v-3.4531c-1.0547 1.4062-2.2148 2.4375-3.4844 3.0938-1.2734 0.65625-2.7422 0.98438-4.4062 0.98438-2.9492 0-5.3711-1.1719-7.2656-3.5156-1.8867-2.3438-2.8281-5.3594-2.8281-9.0469s0.94141-6.7031 2.8281-9.0469c1.8945-2.3438 4.3164-3.5156 7.2656-3.5156 1.6562 0 3.1172 0.33594 4.3906 1 1.2812 0.65625 2.4453 1.6836 3.5 3.0781zm-5.0469 15.484c1.6445 0 2.8945-0.59766 3.75-1.7969 0.86328-1.1953 1.2969-2.9297 1.2969-5.2031 0-2.2812-0.43359-4.0195-1.2969-5.2188-0.85547-1.1953-2.1055-1.7969-3.75-1.7969-1.625 0-2.8711 0.60156-3.7344 1.7969-0.85547 1.1992-1.2812 2.9375-1.2812 5.2188 0 2.2734 0.42578 4.0078 1.2812 5.2031 0.86328 1.1992 2.1094 1.7969 3.7344 1.7969z"/>
  </symbol>
  <symbol id="e" overflow="visible">
   <path d="m16.406-4.9375c1.6328 0 2.8828-0.59766 3.75-1.7969 0.86328-1.1953 1.2969-2.9297 1.2969-5.2031 0-2.2812-0.43359-4.0195-1.2969-5.2188-0.86719-1.1953-2.1172-1.7969-3.75-1.7969-1.6367 0-2.8906 0.60547-3.7656 1.8125-0.875 1.1992-1.3125 2.9336-1.3125 5.2031 0 2.2617 0.4375 3.9961 1.3125 5.2031 0.875 1.1992 2.1289 1.7969 3.7656 1.7969zm-5.0781-15.484c1.0508-1.3945 2.2188-2.4219 3.5-3.0781 1.2812-0.66406 2.7539-1 4.4219-1 2.9453 0 5.3672 1.1719 7.2656 3.5156 1.8945 2.3438 2.8438 5.3594 2.8438 9.0469s-0.94922 6.7031-2.8438 9.0469c-1.8984 2.3438-4.3203 3.5156-7.2656 3.5156-1.668 0-3.1406-0.33594-4.4219-1s-2.4492-1.6914-3.5-3.0781v3.4531h-7.6562v-33.234h7.6562z"/>
  </symbol>
  <symbol id="d" overflow="visible">
   <path d="m0.53125-23.922h7.6562l6.4219 16.234 5.4688-16.234h7.6562l-10.062 26.188c-1.0117 2.6641-2.1953 4.5234-3.5469 5.5781-1.3438 1.0625-3.1211 1.5938-5.3281 1.5938h-4.4219v-5.0156h2.3906c1.3008 0 2.2422-0.21094 2.8281-0.625 0.59375-0.40625 1.0547-1.1484 1.3906-2.2188l0.20312-0.65625z"/>
  </symbol>
  <symbol id="c" overflow="visible">
   <path d="m23.375-5.8125h-12.859l-2.0312 5.8125h-8.2656l11.812-31.891h9.7969l11.812 31.891h-8.2656zm-10.812-5.9219h8.7344l-4.3594-12.688z"/>
  </symbol>
  <symbol id="j" overflow="visible">
   <path d="m27.734-14.562v14.562h-7.7031v-11.156c0-2.0625-0.046875-3.4844-0.14062-4.2656-0.085937-0.78125-0.24219-1.3594-0.46875-1.7344-0.30469-0.5-0.71094-0.88281-1.2188-1.1562-0.51172-0.28125-1.0938-0.42188-1.75-0.42188-1.5938 0-2.8516 0.61719-3.7656 1.8438-0.90625 1.2305-1.3594 2.9375-1.3594 5.125v11.766h-7.6562v-23.922h7.6562v3.5c1.1445-1.3945 2.3633-2.4219 3.6562-3.0781 1.3008-0.66406 2.7383-1 4.3125-1 2.7578 0 4.8516 0.85156 6.2812 2.5469 1.4375 1.6875 2.1562 4.1523 2.1562 7.3906z"/>
  </symbol>
  <symbol id="i" overflow="visible">
   <path d="m3.6719-23.922h7.6562v23.922h-7.6562zm0-9.3125h7.6562v6.2344h-7.6562z"/>
  </symbol>
 </defs>
 <g>
  <path d="m585.38 237.52c-0.375-0.003906-0.75-0.027343-1.1211-0.070312-2.3047-0.29297-4.3945-1.4922-5.8164-3.332-1.418-1.8359-2.0469-4.1641-1.75-6.4688 3.6172-24.828-2.7031-50.078-17.582-70.277-14.883-20.199-37.129-33.715-61.914-37.617-4.7891-0.65234-8.1445-5.0664-7.4922-9.8594 0.65234-4.7891 5.0625-8.1445 9.8555-7.4922 29.355 4.5391 55.742 20.465 73.434 44.328 17.688 23.867 25.258 53.742 21.066 83.148-0.55859 4.3672-4.2773 7.6406-8.6797 7.6406z"/>
  <path d="m547.86 232.43c-0.55859 0-1.1172-0.054687-1.6641-0.16406-4.7422-0.91797-7.8438-5.5039-6.9297-10.246 3.2617-15.094-0.17969-30.859-9.4336-43.219-9.3047-11.906-23.316-19.195-38.41-19.977-2.3633-0.097656-4.5859-1.1484-6.1602-2.9141-1.5781-1.7656-2.3711-4.0938-2.1992-6.4531 0.16797-2.3594 1.2852-4.5508 3.0977-6.0742 1.8086-1.5195 4.1602-2.2461 6.5117-2.0039 20.094 1.1016 38.719 10.871 51.047 26.773 12.328 16.316 16.969 37.18 12.723 57.18-0.78906 4.1172-4.3906 7.0938-8.582 7.0977z"/>
  <path d="m198.68 494.38c-0.48047 0.003906-0.96094-0.039062-1.4336-0.12109-29.215-5.3984-55.129-22.094-72.121-46.469-16.992-24.371-23.691-54.461-18.652-83.742 0.83594-4.6953 5.2773-7.8555 9.9844-7.1094 4.7109 0.74609 7.957 5.125 7.2969 9.8477-4.3438 24.727 1.2344 50.168 15.523 70.809 14.293 20.641 36.148 34.812 60.82 39.441 4.4805 0.75781 7.6328 4.8125 7.2656 9.3398-0.37109 4.5273-4.1406 8.0195-8.6836 8.0391z"/>
  <path d="m206.11 455.55c-0.29688 0-0.59375 0-0.875-0.042969-20.051-1.6992-38.379-12.012-50.242-28.262-11.848-16.672-15.887-37.656-11.066-57.531 0.4375-2.332 1.8047-4.3828 3.7812-5.6875 1.9805-1.3047 4.4062-1.75 6.7188-1.2344 2.3164 0.51562 4.3203 1.9492 5.5586 3.9727 1.2383 2.0195 1.6016 4.457 1.0117 6.7539-3.6914 14.996-0.70703 30.852 8.1797 43.48 8.957 12.176 22.754 19.867 37.816 21.086 4.8359 0.24219 8.5547 4.3555 8.3125 9.1875-0.23828 4.832-4.3516 8.5547-9.1875 8.3125z"/>
  <path d="m341.45 479.35c-18.309-0.18359-36.293-4.8789-52.352-13.668-24.945-13.012-38.5-27.512-64.828-83.074-12.152-25.609-14.332-30.512-18.828-40.637-2.625-5.8203-5.957-13.379-12.461-27.676l-0.003906 0.003906c-6.9688-15.434-14.898-30.414-23.746-44.852-5.9492-9.9844-12.094-20.293-19.836-36.102-4.6094-9.4141-16.844-34.422 4.1133-46.184 6.7305-3.7812 24.16-9.7656 40.25 16.273 8.1367 13.125 12.695 21.551 16.711 28.98 4.9062 9.3984 10.363 18.5 16.344 27.254-1.1719-3.0547-2.3555-6.125-3.5-9.1094-5.6016-14.559-11.953-31.062-17.922-48.188l-2.625-7.6719c-3.1328-9.1172-5.625-16.32-11.277-30.828-3.3594-8.6445-8.1797-24.938-2.6758-37.145v0.003906c2.5195-5.6406 7.2422-10 13.062-12.059 11.051-4.0586 26.969-3.2812 39.996 23.625 15.582 32.141 20.223 43.242 28.605 64.617 2.7227 6.9219 6.6133 15.617 10.613 23.906-2.1094-9.1445-5.0391-20.625-9.0391-34.844v0.003906c-8.8047-26.152-14.961-53.121-18.375-80.5-3.5-25.707 3.9375-42.691 19.879-45.395 26.582-4.6797 35.629 24.762 39.969 38.832l0.55078 1.75c7.4297 23.844 10.859 37.469 14.5 51.887 1.8008 7.168 3.6914 14.684 6.2031 23.949 0.92578 3.457 2.0664 7.9727 3.332 12.984 0.46484 1.8633 1.0078 4.0156 1.6016 6.3438-0.16797-2.0664-0.35938-4.2344-0.57031-6.5352h0.003907c-2.9492-28.195-3.4805-56.59-1.582-84.875 2.0547-32.828 18.277-37.828 25.164-38.449 18.453-1.5586 28.051 16.906 30.801 34.887l0.33984 2.2305c4.1992 24.523 6.8438 49.285 7.9297 74.141 0.8125 24.062 3.1523 48.051 7 71.82 2.2812 14.797 5.7539 29.387 10.387 43.625 2.1016-6.5 4.2344-15.566 5.5898-21.387 1.6523-7.0625 3.0781-13.125 4.5781-17.457 12.25-35 27.125-48.449 32.945-52.605 6.5547-4.707 26.469-14.352 39.523-2.7812l-0.003907 0.003906c3.1523 2.6133 5.4102 6.1406 6.4609 10.098 1.0508 3.9531 0.83984 8.1367-0.59766 11.969-2.0039 5.1367-3.9297 9.6758-5.793 14.078-4.9922 11.105-9.0898 22.594-12.25 34.355-5.5586 20.73-9.918 41.766-13.055 63-2.1797 16.508-5.8906 32.781-11.086 48.605-11.715 35.148-26.074 59.133-64.863 77.641v-0.003907c-18.336 9.4414-38.566 14.621-59.184 15.156zm-175.75-278c-1.2852 0.023438-2.5391 0.39453-3.6328 1.0742-4.6367 2.625-3.7539 9.3281 3.0469 23.223 7.4375 15.164 13.387 25.172 19.164 34.852h-0.003906c9.1641 14.996 17.391 30.547 24.633 46.559 6.5352 14.359 9.9219 21.961 12.52 27.809 4.4531 10.035 6.625 14.875 18.656 40.25 25.828 54.469 37.23 64.699 57.102 75.059 30.914 16.117 59.598 15.594 95.961-1.75 33.328-15.906 45.324-35.953 55.809-67.375 4.9023-14.91 8.3906-30.246 10.422-45.809 3.2422-21.82 7.7266-43.438 13.422-64.75 3.3633-12.562 7.7188-24.836 13.031-36.707 1.8008-4.2617 3.668-8.6641 5.6016-13.641 0.42187-1.0664-0.79688-2.2656-1.1797-2.625-3.125-2.7305-12.898 0.47266-17.727 3.9297-3.5 2.5039-15.75 13.055-26.59 44.16-1.1992 3.3945-2.625 9.3633-4.0703 15.68-5.8281 24.832-9.625 38.988-20.352 40.785-13.246 2.1953-20.859-13.887-29.891-63.918h-0.007813c-3.9805-24.461-6.4023-49.152-7.2539-73.922-1.0664-24.312-3.6641-48.531-7.7695-72.52l-0.33984-2.2227c-0.83203-5.4258-4.8203-20.711-11.918-20.125-4.75 0.42969-8.4883 9.3086-9.2852 22.102-1.8711 27.41-1.3516 54.934 1.5508 82.25 4.1914 45.895 2.2734 59-8.9414 60.969-11.043 2.0312-14.656-7.918-26.496-54.922-1.2344-4.8984-2.3438-9.3086-3.2656-12.688-2.5273-9.3789-4.4453-16.984-6.2734-24.246-3.7266-14.789-6.9492-27.562-14.246-50.941l-0.55859-1.8281c-5.4414-17.73-10.797-28.402-20.316-26.75-6.0273 1.0312-7.0508 14.098-5.4609 25.805 3.2852 26.438 9.2188 52.48 17.711 77.734 19.336 68.766 15.023 74.934 12.172 79.02-1.7656 2.5273-4.5664 4.1328-7.6406 4.375h-0.5c-12.102 0-27.648-33.074-38.633-61.031-8.2148-20.922-12.75-31.797-28.062-63.367-8.8555-18.227-15.418-15.855-18.207-14.805h0.003906c-1.4219 0.43359-2.5781 1.4688-3.1602 2.8359-1.6523 7.9922-0.58984 16.309 3.0273 23.625 5.7852 14.824 8.3203 22.172 11.531 31.5l2.625 7.6133c5.8789 16.852 12.18 33.25 17.746 47.652 16.344 42.473 20.23 52.57 9.8008 57.539-4.6094 2.2031-10.887 5.1016-33.617-27.246-7.6836-10.793-14.621-22.094-20.762-33.828-3.8945-7.2188-8.3125-15.391-16.039-27.832-5.8477-9.4531-10.352-11.551-13.336-11.551z"/>
  <use x="70" y="691.25" xlink:href="#k"/>
  <use x="102.109375" y="691.25" xlink:href="#h"/>
  <use x="123.683594" y="691.25" xlink:href="#b"/>
  <use x="153.355469" y="691.25" xlink:href="#g"/>
  <use x="182.878906" y="691.25" xlink:href="#f"/>
  <use x="203.792969" y="691.25" xlink:href="#b"/>
  <use x="233.464844" y="691.25" xlink:href="#a"/>
  <use x="280.011719" y="691.25" xlink:href="#e"/>
  <use x="311.328125" y="691.25" xlink:href="#d"/>
  <use x="355.078125" y="691.25" xlink:href="#c"/>
  <use x="388.9375" y="691.25" xlink:href="#j"/>
  <use x="420.085938" y="691.25" xlink:href="#a"/>
  <use x="451.402344" y="691.25" xlink:href="#i"/>
 </g>
</svg>
