<?xml version="1.0" encoding="UTF-8"?>
<svg width="700pt" height="700pt" version="1.1" viewBox="0 0 700 700" xmlns="http://www.w3.org/2000/svg" xmlns:xlink="http://www.w3.org/1999/xlink">
 <defs>
  <symbol id="r" overflow="visible">
   <path d="m18.766-1.125c-0.96875 0.5-1.9805 0.875-3.0312 1.125-1.043 0.25781-2.1367 0.39062-3.2812 0.39062-3.3984 0-6.0898-0.94531-8.0781-2.8438-1.9922-1.9062-2.9844-4.4844-2.9844-7.7344 0-3.2578 0.99219-5.8359 2.9844-7.7344 1.9883-1.9062 4.6797-2.8594 8.0781-2.8594 1.1445 0 2.2383 0.13281 3.2812 0.39062 1.0508 0.25 2.0625 0.625 3.0312 1.125v4.2188c-0.98047-0.65625-1.9453-1.1406-2.8906-1.4531-0.94922-0.3125-1.9492-0.46875-3-0.46875-1.875 0-3.3516 0.60547-4.4219 1.8125-1.0742 1.1992-1.6094 2.8555-1.6094 4.9688 0 2.1055 0.53516 3.7617 1.6094 4.9688 1.0703 1.1992 2.5469 1.7969 4.4219 1.7969 1.0508 0 2.0508-0.14844 3-0.45312 0.94531-0.3125 1.9102-0.80078 2.8906-1.4688z"/>
  </symbol>
  <symbol id="b" overflow="visible">
   <path d="m13.734-11.141c-0.4375-0.19531-0.87109-0.34375-1.2969-0.4375-0.41797-0.10156-0.83984-0.15625-1.2656-0.15625-1.2617 0-2.2305 0.40625-2.9062 1.2188-0.67969 0.80469-1.0156 1.9531-1.0156 3.4531v7.0625h-4.8906v-15.312h4.8906v2.5156c0.625-1 1.3438-1.7266 2.1562-2.1875 0.82031-0.46875 1.8008-0.70312 2.9375-0.70312 0.16406 0 0.34375 0.011719 0.53125 0.03125 0.19531 0.011719 0.47656 0.039062 0.84375 0.078125z"/>
  </symbol>
  <symbol id="a" overflow="visible">
   <path d="m17.641-7.7031v1.4062h-11.453c0.125 1.1484 0.53906 2.0078 1.25 2.5781 0.70703 0.57422 1.7031 0.85938 2.9844 0.85938 1.0312 0 2.082-0.14844 3.1562-0.45312 1.082-0.3125 2.1914-0.77344 3.3281-1.3906v3.7656c-1.1562 0.4375-2.3125 0.76562-3.4688 0.98438-1.1562 0.22656-2.3125 0.34375-3.4688 0.34375-2.7734 0-4.9297-0.70312-6.4688-2.1094-1.5312-1.4062-2.2969-3.3789-2.2969-5.9219 0-2.5 0.75391-4.4609 2.2656-5.8906 1.5078-1.4375 3.582-2.1562 6.2188-2.1562 2.4062 0 4.332 0.73047 5.7812 2.1875 1.4453 1.4492 2.1719 3.3828 2.1719 5.7969zm-5.0312-1.625c0-0.92578-0.27344-1.6719-0.8125-2.2344-0.54297-0.57031-1.25-0.85938-2.125-0.85938-0.94922 0-1.7188 0.26562-2.3125 0.79688s-0.96484 1.2969-1.1094 2.2969z"/>
  </symbol>
  <symbol id="g" overflow="visible">
   <path d="m9.2188-6.8906c-1.0234 0-1.793 0.17188-2.3125 0.51562-0.51172 0.34375-0.76562 0.85547-0.76562 1.5312 0 0.625 0.20703 1.1172 0.625 1.4688 0.41406 0.34375 0.98828 0.51562 1.7188 0.51562 0.92578 0 1.7031-0.32812 2.3281-0.98438 0.63281-0.66406 0.95312-1.4922 0.95312-2.4844v-0.5625zm7.4688-1.8438v8.7344h-4.9219v-2.2656c-0.65625 0.92969-1.3984 1.6055-2.2188 2.0312-0.82422 0.41406-1.8242 0.625-3 0.625-1.5859 0-2.8711-0.45703-3.8594-1.375-0.99219-0.92578-1.4844-2.1289-1.4844-3.6094 0-1.7891 0.61328-3.1016 1.8438-3.9375 1.2383-0.84375 3.1797-1.2656 5.8281-1.2656h2.8906v-0.39062c0-0.76953-0.30859-1.332-0.92188-1.6875-0.61719-0.36328-1.5703-0.54688-2.8594-0.54688-1.0547 0-2.0312 0.10547-2.9375 0.3125-0.89844 0.21094-1.7305 0.52344-2.5 0.9375v-3.7344c1.0391-0.25 2.0859-0.44141 3.1406-0.57812 1.0625-0.13281 2.125-0.20312 3.1875-0.20312 2.7578 0 4.75 0.54688 5.9688 1.6406 1.2266 1.0859 1.8438 2.8555 1.8438 5.3125z"/>
  </symbol>
  <symbol id="d" overflow="visible">
   <path d="m7.7031-19.656v4.3438h5.0469v3.5h-5.0469v6.5c0 0.71094 0.14062 1.1875 0.42188 1.4375s0.83594 0.375 1.6719 0.375h2.5156v3.5h-4.1875c-1.9375 0-3.3125-0.39844-4.125-1.2031-0.80469-0.8125-1.2031-2.1797-1.2031-4.1094v-6.5h-2.4219v-3.5h2.4219v-4.3438z"/>
  </symbol>
  <symbol id="i" overflow="visible">
   <path d="m12.766-13.078v-8.2031h4.9219v21.281h-4.9219v-2.2188c-0.66797 0.90625-1.4062 1.5703-2.2188 1.9844s-1.7578 0.625-2.8281 0.625c-1.8867 0-3.4336-0.75-4.6406-2.25-1.2109-1.5-1.8125-3.4258-1.8125-5.7812 0-2.3633 0.60156-4.2969 1.8125-5.7969 1.207-1.5 2.7539-2.25 4.6406-2.25 1.0625 0 2 0.21484 2.8125 0.64062 0.82031 0.42969 1.5664 1.0859 2.2344 1.9688zm-3.2188 9.9219c1.0391 0 1.8359-0.37891 2.3906-1.1406 0.55078-0.76953 0.82812-1.8828 0.82812-3.3438 0-1.457-0.27734-2.5664-0.82812-3.3281-0.55469-0.76953-1.3516-1.1562-2.3906-1.1562-1.043 0-1.8398 0.38672-2.3906 1.1562-0.55469 0.76172-0.82812 1.8711-0.82812 3.3281 0 1.4609 0.27344 2.5742 0.82812 3.3438 0.55078 0.76172 1.3477 1.1406 2.3906 1.1406z"/>
  </symbol>
  <symbol id="h" overflow="visible">
   <path d="m10.5-3.1562c1.0508 0 1.8516-0.37891 2.4062-1.1406 0.55078-0.76953 0.82812-1.8828 0.82812-3.3438 0-1.457-0.27734-2.5664-0.82812-3.3281-0.55469-0.76953-1.3555-1.1562-2.4062-1.1562-1.0547 0-1.8594 0.38672-2.4219 1.1562-0.55469 0.77344-0.82812 1.8828-0.82812 3.3281 0 1.4492 0.27344 2.5586 0.82812 3.3281 0.5625 0.77344 1.3672 1.1562 2.4219 1.1562zm-3.25-9.9219c0.67578-0.88281 1.4219-1.5391 2.2344-1.9688 0.82031-0.42578 1.7656-0.64062 2.8281-0.64062 1.8945 0 3.4453 0.75 4.6562 2.25 1.207 1.5 1.8125 3.4336 1.8125 5.7969 0 2.3555-0.60547 4.2812-1.8125 5.7812-1.2109 1.5-2.7617 2.25-4.6562 2.25-1.0625 0-2.0078-0.21094-2.8281-0.625-0.8125-0.42578-1.5586-1.0859-2.2344-1.9844v2.2188h-4.8906v-21.281h4.8906z"/>
  </symbol>
  <symbol id="f" overflow="visible">
   <path d="m0.34375-15.312h4.8906l4.125 10.391 3.5-10.391h4.8906l-6.4375 16.766c-0.64844 1.6953-1.4023 2.8828-2.2656 3.5625-0.86719 0.6875-2 1.0312-3.4062 1.0312h-2.8438v-3.2188h1.5312c0.83203 0 1.4375-0.13672 1.8125-0.40625 0.38281-0.26172 0.67969-0.73047 0.89062-1.4062l0.14062-0.42188z"/>
  </symbol>
  <symbol id="c" overflow="visible">
   <path d="m12.422-21.281v3.2188h-2.7031c-0.6875 0-1.1719 0.125-1.4531 0.375-0.27344 0.25-0.40625 0.6875-0.40625 1.3125v1.0625h4.1875v3.5h-4.1875v11.812h-4.8906v-11.812h-2.4375v-3.5h2.4375v-1.0625c0-1.6641 0.46094-2.8984 1.3906-3.7031 0.92578-0.80078 2.3672-1.2031 4.3281-1.2031z"/>
  </symbol>
  <symbol id="e" overflow="visible">
   <path d="m9.6406-12.188c-1.0859 0-1.9141 0.39062-2.4844 1.1719-0.57422 0.78125-0.85938 1.9062-0.85938 3.375s0.28516 2.5938 0.85938 3.375c0.57031 0.77344 1.3984 1.1562 2.4844 1.1562 1.0625 0 1.875-0.38281 2.4375-1.1562 0.57031-0.78125 0.85938-1.9062 0.85938-3.375s-0.28906-2.5938-0.85938-3.375c-0.5625-0.78125-1.375-1.1719-2.4375-1.1719zm0-3.5c2.6328 0 4.6914 0.71484 6.1719 2.1406 1.4766 1.418 2.2188 3.3867 2.2188 5.9062 0 2.5117-0.74219 4.4805-2.2188 5.9062-1.4805 1.418-3.5391 2.125-6.1719 2.125-2.6484 0-4.7148-0.70703-6.2031-2.125-1.4922-1.4258-2.2344-3.3945-2.2344-5.9062 0-2.5195 0.74219-4.4883 2.2344-5.9062 1.4883-1.4258 3.5547-2.1406 6.2031-2.1406z"/>
  </symbol>
  <symbol id="q" overflow="visible">
   <path d="m16.547-12.766c0.61328-0.94531 1.3477-1.6719 2.2031-2.1719 0.85156-0.5 1.7891-0.75 2.8125-0.75 1.7578 0 3.0977 0.54688 4.0156 1.6406 0.92578 1.0859 1.3906 2.6562 1.3906 4.7188v9.3281h-4.9219v-7.9844-0.35938c0.007813-0.13281 0.015625-0.32031 0.015625-0.5625 0-1.082-0.16406-1.8633-0.48438-2.3438-0.3125-0.48828-0.82422-0.73438-1.5312-0.73438-0.92969 0-1.6484 0.38672-2.1562 1.1562-0.51172 0.76172-0.77344 1.8672-0.78125 3.3125v7.5156h-4.9219v-7.9844c0-1.6953-0.14844-2.7852-0.4375-3.2656-0.29297-0.48828-0.8125-0.73438-1.5625-0.73438-0.9375 0-1.6641 0.38672-2.1719 1.1562-0.51172 0.76172-0.76562 1.8594-0.76562 3.2969v7.5312h-4.9219v-15.312h4.9219v2.2344c0.60156-0.86328 1.2891-1.5156 2.0625-1.9531 0.78125-0.4375 1.6406-0.65625 2.5781-0.65625 1.0625 0 2 0.25781 2.8125 0.76562 0.8125 0.51172 1.4258 1.2305 1.8438 2.1562z"/>
  </symbol>
  <symbol id="p" overflow="visible">
   <path d="m17.75-9.3281v9.3281h-4.9219v-7.1094c0-1.3438-0.03125-2.2656-0.09375-2.7656s-0.16797-0.86719-0.3125-1.1094c-0.1875-0.3125-0.44922-0.55469-0.78125-0.73438-0.32422-0.17578-0.69531-0.26562-1.1094-0.26562-1.0234 0-1.8242 0.39844-2.4062 1.1875-0.58594 0.78125-0.875 1.8711-0.875 3.2656v7.5312h-4.8906v-21.281h4.8906v8.2031c0.73828-0.88281 1.5195-1.5391 2.3438-1.9688 0.83203-0.42578 1.75-0.64062 2.75-0.64062 1.7695 0 3.1133 0.54688 4.0312 1.6406 0.91406 1.0859 1.375 2.6562 1.375 4.7188z"/>
  </symbol>
  <symbol id="o" overflow="visible">
   <path d="m2.5781-20.406h5.875l7.4219 14v-14h4.9844v20.406h-5.875l-7.4219-14v14h-4.9844z"/>
  </symbol>
  <symbol id="n" overflow="visible">
   <path d="m2.1875-5.9688v-9.3438h4.9219v1.5312c0 0.83594-0.007813 1.875-0.015625 3.125-0.011719 1.25-0.015625 2.0859-0.015625 2.5 0 1.2422 0.03125 2.1328 0.09375 2.6719 0.070313 0.54297 0.17969 0.93359 0.32812 1.1719 0.20703 0.32422 0.47266 0.57422 0.79688 0.75 0.32031 0.16797 0.69141 0.25 1.1094 0.25 1.0195 0 1.8203-0.39062 2.4062-1.1719 0.58203-0.78125 0.875-1.8672 0.875-3.2656v-7.5625h4.8906v15.312h-4.8906v-2.2188c-0.74219 0.89844-1.5234 1.5586-2.3438 1.9844-0.82422 0.41406-1.7344 0.625-2.7344 0.625-1.7617 0-3.1055-0.53906-4.0312-1.625-0.92969-1.082-1.3906-2.6602-1.3906-4.7344z"/>
  </symbol>
  <symbol id="m" overflow="visible">
   <path d="m17.75-9.3281v9.3281h-4.9219v-7.1406c0-1.3203-0.03125-2.2344-0.09375-2.7344s-0.16797-0.86719-0.3125-1.1094c-0.1875-0.3125-0.44922-0.55469-0.78125-0.73438-0.32422-0.17578-0.69531-0.26562-1.1094-0.26562-1.0234 0-1.8242 0.39844-2.4062 1.1875-0.58594 0.78125-0.875 1.8711-0.875 3.2656v7.5312h-4.8906v-15.312h4.8906v2.2344c0.73828-0.88281 1.5195-1.5391 2.3438-1.9688 0.83203-0.42578 1.75-0.64062 2.75-0.64062 1.7695 0 3.1133 0.54688 4.0312 1.6406 0.91406 1.0859 1.375 2.6562 1.375 4.7188z"/>
  </symbol>
  <symbol id="l" overflow="visible">
   <path d="m2.5781-20.406h8.7344c2.5938 0 4.582 0.57812 5.9688 1.7344 1.3945 1.1484 2.0938 2.7891 2.0938 4.9219 0 2.1367-0.69922 3.7812-2.0938 4.9375-1.3867 1.1562-3.375 1.7344-5.9688 1.7344h-3.4844v7.0781h-5.25zm5.25 3.8125v5.7031h2.9219c1.0195 0 1.8047-0.25 2.3594-0.75 0.5625-0.5 0.84375-1.2031 0.84375-2.1094 0-0.91406-0.28125-1.6172-0.84375-2.1094-0.55469-0.48828-1.3398-0.73438-2.3594-0.73438z"/>
  </symbol>
  <symbol id="k" overflow="visible">
   <path d="m2.3594-15.312h4.8906v15.031c0 2.0508-0.49609 3.6172-1.4844 4.7031-0.98047 1.082-2.4062 1.625-4.2812 1.625h-2.4219v-3.2188h0.85938c0.92578 0 1.5625-0.21094 1.9062-0.625 0.35156-0.41797 0.53125-1.2461 0.53125-2.4844zm0-5.9688h4.8906v4h-4.8906z"/>
  </symbol>
  <symbol id="j" overflow="visible">
   <path d="m14.719-14.828v3.9844c-0.65625-0.45703-1.3242-0.79688-2-1.0156-0.66797-0.21875-1.3594-0.32812-2.0781-0.32812-1.3672 0-2.4336 0.40234-3.2031 1.2031-0.76172 0.79297-1.1406 1.9062-1.1406 3.3438 0 1.4297 0.37891 2.543 1.1406 3.3438 0.76953 0.79297 1.8359 1.1875 3.2031 1.1875 0.75781 0 1.4844-0.10938 2.1719-0.32812 0.6875-0.22656 1.3203-0.56641 1.9062-1.0156v4c-0.76172 0.28125-1.5391 0.48828-2.3281 0.625-0.78125 0.14453-1.5742 0.21875-2.375 0.21875-2.7617 0-4.9219-0.70703-6.4844-2.125-1.5547-1.4141-2.3281-3.3828-2.3281-5.9062 0-2.5312 0.77344-4.5039 2.3281-5.9219 1.5625-1.4141 3.7227-2.125 6.4844-2.125 0.80078 0 1.5938 0.074219 2.375 0.21875 0.78125 0.13672 1.5547 0.35156 2.3281 0.64062z"/>
  </symbol>
 </defs>
 <g>
  <path d="m330.4 33.602c-4.9297 0.44141-8.9883 4.0703-9.9727 8.9219l-5.6016 27.652c-4.3516 1.5156-8.5508 3.2344-12.598 5.25l-23.625-15.574c-4.457-2.8438-10.289-2.1875-14 1.5742-8.4727 8.4922-17.73 17.004-26.602 25.898-3.7969 3.7812-4.3828 9.7227-1.3984 14.176l15.922 23.625c-2.0234 4.1367-3.7383 8.3828-5.25 12.773l-28.172 6.125c-5.2227 1.0859-8.9531 5.6953-8.9258 11.027v36.574c0.054688 5.2656 3.7695 9.7812 8.9258 10.852l28.172 6.125c1.5117 4.3906 3.2266 8.6367 5.25 12.773l-15.922 23.801c-2.8906 4.4141-2.3047 10.246 1.3984 14 8.8711 8.8945 18.129 17.406 26.602 25.898 3.7109 3.7617 9.543 4.418 14 1.5742l23.797-15.398c4.043 2.0039 8.2578 3.7422 12.602 5.25l5.4258 27.477c1.0078 5.2891 5.6406 9.1094 11.023 9.0977h37.102c5.3828 0.011719 10.016-3.8086 11.023-9.0977l5.4258-27.477c4.3438-1.5078 8.5586-3.2461 12.602-5.25l23.797 15.398c4.457 2.8438 10.289 2.1875 14-1.5742 8.4727-8.4922 17.73-17.004 26.602-25.898 3.7031-3.7539 4.2891-9.5859 1.3984-14l-15.922-23.801c2.0234-4.1367 3.7383-8.3828 5.25-12.773l28.172-6.125c5.1562-1.0703 8.8711-5.5859 8.9258-10.852v-36.574c0.027343-5.332-3.7031-9.9414-8.9258-11.027l-28.172-6.125c-1.5117-4.3906-3.2266-8.6367-5.25-12.773l15.922-23.625c2.9844-4.4531 2.3984-10.395-1.3984-14.176-8.8711-8.8945-18.129-17.406-26.602-25.898-3.7109-3.7617-9.543-4.418-14-1.5742l-23.625 15.574c-4.0469-2.0156-8.2461-3.7344-12.598-5.25l-5.6016-27.652c-1.082-5.2188-5.6953-8.9492-11.023-8.9219h-37.102c-0.34766-0.019531-0.69922-0.019531-1.0508 0zm10.328 22.398h18.547l4.9023 24.148c0.875 4.1992 4.0664 7.5273 8.2227 8.5781 7.4609 1.9688 14.324 5.0586 21 8.9219 3.6641 2.1055 8.1953 1.9688 11.727-0.34766l21-13.652c4.5234 4.4102 9.0547 8.6445 13.477 12.953l-14 21c-2.375 3.4961-2.5781 8.0273-0.52734 11.723 3.7422 6.4492 6.918 13.93 8.9258 21.352 1.0781 4.0391 4.3164 7.1445 8.3984 8.0508l25.027 5.25v18.547l-25.027 5.4258c-4.082 0.90625-7.3203 4.0078-8.3984 8.0508-2.0078 7.4219-5.1836 14.727-8.9258 21.176-2.1211 3.7383-1.918 8.3633 0.52734 11.898l13.824 20.824c-4.4219 4.3086-8.7773 8.7148-13.301 13.125l-21-13.824c-3.5625-2.2617-8.0977-2.3281-11.727-0.17578-6.6758 3.8672-13.539 6.7812-21 8.75-4.1562 1.0508-7.3477 4.3789-8.2227 8.5781l-4.9023 24.324h-18.547l-4.9023-24.324c-0.875-4.1992-4.0664-7.5273-8.2227-8.5781-7.4609-1.9688-14.324-4.8828-21-8.75-3.6289-2.1523-8.1641-2.0859-11.727 0.17578l-21 13.824c-4.5234-4.4102-8.8789-8.8164-13.301-13.125l13.824-20.824c2.4453-3.5352 2.6484-8.1602 0.52734-11.898-3.7422-6.4492-6.918-13.754-8.9258-21.176-1.0781-4.043-4.3164-7.1445-8.3984-8.0508l-25.027-5.4258v-18.547l25.027-5.25c4.082-0.90625 7.3203-4.0117 8.3984-8.0508 2.0078-7.4219 5.1836-14.902 8.9258-21.352 2.0508-3.6953 1.8477-8.2266-0.52734-11.723l-14-21c4.4219-4.3086 8.9531-8.543 13.477-12.953l21 13.652c3.5312 2.3164 8.0625 2.4531 11.727 0.34766 6.6758-3.8633 13.539-6.9531 21-8.9219 4.1562-1.0508 7.3477-4.3789 8.2227-8.5781zm9.2734 72.273c-24.719 0-44.977 20.258-44.977 44.977s20.258 44.977 44.977 44.977 44.977-20.258 44.977-44.977-20.258-44.977-44.977-44.977zm0 22.402c12.512 0 22.574 10.062 22.574 22.574 0 12.516-10.062 22.574-22.574 22.574s-22.574-10.059-22.574-22.574c0-12.512 10.062-22.574 22.574-22.574zm208.25 108.5c-8.7734 0-16.707 3.9492-22.398 9.8008l-0.17578-0.17578s-0.17188 0.34766-0.17578 0.34766c-0.25 0.25391-15.359 15.207-31.852 31.676-16.625 16.605-34 33.867-39.199 39.551-2.0156 2.2031-3.0703 5.1172-2.9297 8.0977 0.13672 2.9805 1.4609 5.7852 3.6758 7.7891 2.2109 2.0039 5.1328 3.0391 8.1133 2.8828 2.9805-0.15625 5.7773-1.4961 7.7656-3.7188 3.5469-3.8789 21.73-22.105 38.324-38.676 16.598-16.57 32.027-32.023 32.027-32.023 0.11719-0.058593 0.23438-0.11719 0.34766-0.17578 1.9375-2.0391 4.0625-2.9766 6.4766-2.9766 5.0273 0 10.148 4.8242 10.148 12.602 0 3.3516-1.0586 6.2344-2.625 8.3984-0.027344 0.058593 0.03125 0.13672 0 0.17578-0.48828 0.58594-67.477 80.973-110.77 131.6-11.961 13.984-28.395 27.824-51.625 27.824h-132.82c-14.289 0-29.297 2.5938-40.949 14l-31.676 30.973c-2.1797 2.0742-3.4336 4.9375-3.4805 7.9453-0.046874 3.0117 1.1172 5.9102 3.2344 8.0508 2.1172 2.1367 5.0039 3.3359 8.0117 3.3242 3.0078-0.015625 5.8867-1.2383 7.9844-3.3945l31.676-30.973c6.3867-6.2539 13.156-7.5273 25.199-7.5273h132.82c32.16 0 54.684-19.426 68.602-35.699 43.652-51.047 111.3-132.3 111.3-132.3 0.125-0.17188 0.23828-0.34766 0.35156-0.52344 4.5195-6.0938 7.1758-13.707 7.1758-21.875 0-18.605-13.988-35-32.551-35zm-295.4 83.473c-23.766 0-48.258 3.3398-67.902 19.426l-81.723 66.852c-4.7852 3.9609-5.4531 11.051-1.4883 15.836 3.9609 4.7852 11.051 5.4492 15.836 1.4883l81.551-66.852c13.625-11.156 32.023-14.348 53.727-14.348h164.85c1.918 5.5078 1.6797 12.238-1.9258 18.898-4.5312 8.3789-12.207 12.969-15.922 12.602-0.34766-0.074219-0.69922-0.13281-1.0508-0.17578h-106.93c-2.9961-0.042969-5.8867 1.1172-8.0234 3.2227-2.1328 2.1055-3.3359 4.9805-3.3359 7.9766 0 3 1.2031 5.8711 3.3359 7.9766 2.1367 2.1055 5.0273 3.2656 8.0234 3.2227h106.93v-0.17188c16.41 0.96484 29.418-10.602 36.75-24.152 7.5234-13.902 9.9766-32.59-1.2266-47.25-2.0938-2.8359-5.3984-4.5234-8.9258-4.5508z"/>
  <use x="70" y="644" xlink:href="#r"/>
  <use x="90.550781" y="644" xlink:href="#b"/>
  <use x="104.359375" y="644" xlink:href="#a"/>
  <use x="123.347656" y="644" xlink:href="#g"/>
  <use x="142.242188" y="644" xlink:href="#d"/>
  <use x="155.628906" y="644" xlink:href="#a"/>
  <use x="174.617188" y="644" xlink:href="#i"/>
  <use x="204.410156" y="644" xlink:href="#h"/>
  <use x="224.453125" y="644" xlink:href="#f"/>
  <use x="252.453125" y="644" xlink:href="#c"/>
  <use x="264.632812" y="644" xlink:href="#g"/>
  <use x="283.527344" y="644" xlink:href="#a"/>
  <use x="312.265625" y="644" xlink:href="#c"/>
  <use x="324.445312" y="644" xlink:href="#b"/>
  <use x="338.257812" y="644" xlink:href="#a"/>
  <use x="357.246094" y="644" xlink:href="#f"/>
  <use x="70" y="672" xlink:href="#c"/>
  <use x="82.183594" y="672" xlink:href="#b"/>
  <use x="95.992188" y="672" xlink:href="#e"/>
  <use x="115.226562" y="672" xlink:href="#q"/>
  <use x="154.152344" y="672" xlink:href="#d"/>
  <use x="167.535156" y="672" xlink:href="#p"/>
  <use x="187.46875" y="672" xlink:href="#a"/>
  <use x="216.207031" y="672" xlink:href="#o"/>
  <use x="239.640625" y="672" xlink:href="#e"/>
  <use x="258.878906" y="672" xlink:href="#n"/>
  <use x="278.8125" y="672" xlink:href="#m"/>
  <use x="308.492188" y="672" xlink:href="#l"/>
  <use x="329.015625" y="672" xlink:href="#b"/>
  <use x="342.820312" y="672" xlink:href="#e"/>
  <use x="362.058594" y="672" xlink:href="#k"/>
  <use x="371.65625" y="672" xlink:href="#a"/>
  <use x="390.648438" y="672" xlink:href="#j"/>
  <use x="407.242188" y="672" xlink:href="#d"/>
 </g>
</svg>
